<mxfile host="app.diagrams.net" agent="Mozilla/5.0 (Windows NT 10.0; Win64; x64) AppleWebKit/537.36 (KHTML, like Gecko) Chrome/141.0.0.0 Safari/537.36" version="28.2.5">
  <diagram name="Page-1" id="kMOYhE2bnhWaVsYtM4s6">
    <mxGraphModel dx="2977" dy="1574" grid="1" gridSize="10" guides="1" tooltips="1" connect="1" arrows="1" fold="1" page="1" pageScale="1" pageWidth="850" pageHeight="1100" math="0" shadow="0">
      <root>
        <mxCell id="0" />
        <mxCell id="1" parent="0" />
        <mxCell id="QHwrTbUI5UQXZR6092e3-3" value="" style="edgeStyle=orthogonalEdgeStyle;rounded=0;orthogonalLoop=1;jettySize=auto;html=1;" edge="1" parent="1" source="QHwrTbUI5UQXZR6092e3-1" target="QHwrTbUI5UQXZR6092e3-2">
          <mxGeometry relative="1" as="geometry" />
        </mxCell>
        <mxCell id="QHwrTbUI5UQXZR6092e3-1" value="START" style="strokeWidth=2;html=1;shape=mxgraph.flowchart.terminator;whiteSpace=wrap;fontSize=14;" vertex="1" parent="1">
          <mxGeometry x="233.14" y="25" width="105" height="50" as="geometry" />
        </mxCell>
        <mxCell id="QHwrTbUI5UQXZR6092e3-5" value="" style="edgeStyle=orthogonalEdgeStyle;rounded=0;orthogonalLoop=1;jettySize=auto;html=1;" edge="1" parent="1" source="QHwrTbUI5UQXZR6092e3-2" target="QHwrTbUI5UQXZR6092e3-4">
          <mxGeometry relative="1" as="geometry" />
        </mxCell>
        <mxCell id="QHwrTbUI5UQXZR6092e3-2" value="define List&lt;div&gt;(Java: ArrayList)&lt;/div&gt;&lt;div&gt;(C++: std::vector)&lt;/div&gt;&lt;div&gt;(Python: List)&lt;/div&gt;" style="verticalLabelPosition=middle;verticalAlign=middle;html=1;shape=hexagon;perimeter=hexagonPerimeter2;arcSize=6;size=0.17647058823529413;labelPosition=center;align=center;fontSize=14;" vertex="1" parent="1">
          <mxGeometry x="200.14" y="135" width="170" height="80" as="geometry" />
        </mxCell>
        <mxCell id="QHwrTbUI5UQXZR6092e3-8" value="" style="edgeStyle=orthogonalEdgeStyle;rounded=0;orthogonalLoop=1;jettySize=auto;html=1;" edge="1" parent="1" source="QHwrTbUI5UQXZR6092e3-4" target="QHwrTbUI5UQXZR6092e3-7">
          <mxGeometry relative="1" as="geometry" />
        </mxCell>
        <mxCell id="QHwrTbUI5UQXZR6092e3-4" value="&lt;font style=&quot;font-size: 14px;&quot;&gt;input total vehicle&lt;/font&gt;" style="shape=parallelogram;html=1;strokeWidth=2;perimeter=parallelogramPerimeter;whiteSpace=wrap;rounded=1;arcSize=0;size=0.16666666666666666;" vertex="1" parent="1">
          <mxGeometry x="195.64" y="275" width="180" height="70" as="geometry" />
        </mxCell>
        <mxCell id="QHwrTbUI5UQXZR6092e3-11" value="" style="edgeStyle=orthogonalEdgeStyle;rounded=0;orthogonalLoop=1;jettySize=auto;html=1;" edge="1" parent="1" source="QHwrTbUI5UQXZR6092e3-7" target="QHwrTbUI5UQXZR6092e3-9">
          <mxGeometry relative="1" as="geometry" />
        </mxCell>
        <mxCell id="QHwrTbUI5UQXZR6092e3-19" value="&lt;font style=&quot;font-size: 14px;&quot;&gt;TRUE&lt;/font&gt;" style="edgeLabel;html=1;align=center;verticalAlign=middle;resizable=0;points=[];" vertex="1" connectable="0" parent="QHwrTbUI5UQXZR6092e3-11">
          <mxGeometry x="-0.063" y="-2" relative="1" as="geometry">
            <mxPoint as="offset" />
          </mxGeometry>
        </mxCell>
        <mxCell id="QHwrTbUI5UQXZR6092e3-23" style="edgeStyle=orthogonalEdgeStyle;rounded=0;orthogonalLoop=1;jettySize=auto;html=1;exitX=1;exitY=0.5;exitDx=0;exitDy=0;entryX=0;entryY=0.5;entryDx=0;entryDy=0;" edge="1" parent="1" source="QHwrTbUI5UQXZR6092e3-7">
          <mxGeometry relative="1" as="geometry">
            <mxPoint x="510" y="470" as="targetPoint" />
          </mxGeometry>
        </mxCell>
        <mxCell id="QHwrTbUI5UQXZR6092e3-24" value="&lt;font style=&quot;font-size: 14px;&quot;&gt;FALSE&lt;/font&gt;" style="edgeLabel;html=1;align=center;verticalAlign=middle;resizable=0;points=[];" vertex="1" connectable="0" parent="QHwrTbUI5UQXZR6092e3-23">
          <mxGeometry x="-0.4646" relative="1" as="geometry">
            <mxPoint as="offset" />
          </mxGeometry>
        </mxCell>
        <mxCell id="QHwrTbUI5UQXZR6092e3-7" value="&lt;div&gt;i = 0&lt;/div&gt;&lt;div&gt;i &amp;lt; total vehicle?&lt;/div&gt;" style="rhombus;whiteSpace=wrap;html=1;fontSize=14;" vertex="1" parent="1">
          <mxGeometry x="221.64" y="405" width="128" height="130" as="geometry" />
        </mxCell>
        <mxCell id="QHwrTbUI5UQXZR6092e3-12" value="" style="edgeStyle=orthogonalEdgeStyle;rounded=0;orthogonalLoop=1;jettySize=auto;html=1;" edge="1" parent="1" source="QHwrTbUI5UQXZR6092e3-9" target="QHwrTbUI5UQXZR6092e3-10">
          <mxGeometry relative="1" as="geometry" />
        </mxCell>
        <mxCell id="QHwrTbUI5UQXZR6092e3-9" value="&lt;font style=&quot;font-size: 14px;&quot;&gt;input Date and Time&lt;/font&gt;&lt;div&gt;&lt;font style=&quot;font-size: 14px;&quot;&gt;property (as waktu&lt;/font&gt;&lt;/div&gt;&lt;div&gt;&lt;font style=&quot;font-size: 14px;&quot;&gt;`datang`)&lt;/font&gt;&lt;/div&gt;" style="shape=parallelogram;html=1;strokeWidth=2;perimeter=parallelogramPerimeter;whiteSpace=wrap;rounded=1;arcSize=0;size=0.16666666666666666;" vertex="1" parent="1">
          <mxGeometry x="195.14" y="595" width="180" height="70" as="geometry" />
        </mxCell>
        <mxCell id="QHwrTbUI5UQXZR6092e3-14" value="" style="edgeStyle=orthogonalEdgeStyle;rounded=0;orthogonalLoop=1;jettySize=auto;html=1;" edge="1" parent="1" source="QHwrTbUI5UQXZR6092e3-10" target="QHwrTbUI5UQXZR6092e3-13">
          <mxGeometry relative="1" as="geometry" />
        </mxCell>
        <mxCell id="QHwrTbUI5UQXZR6092e3-10" value="&lt;font style=&quot;font-size: 14px;&quot;&gt;input Date and Time&lt;/font&gt;&lt;div&gt;&lt;font style=&quot;font-size: 14px;&quot;&gt;property (as waktu&lt;/font&gt;&lt;/div&gt;&lt;div&gt;&lt;font style=&quot;font-size: 14px;&quot;&gt;`pulang`)&lt;/font&gt;&lt;/div&gt;" style="shape=parallelogram;html=1;strokeWidth=2;perimeter=parallelogramPerimeter;whiteSpace=wrap;rounded=1;arcSize=0;size=0.16666666666666666;" vertex="1" parent="1">
          <mxGeometry x="195.64" y="725" width="180" height="70" as="geometry" />
        </mxCell>
        <mxCell id="QHwrTbUI5UQXZR6092e3-17" value="" style="edgeStyle=orthogonalEdgeStyle;rounded=0;orthogonalLoop=1;jettySize=auto;html=1;" edge="1" parent="1" source="QHwrTbUI5UQXZR6092e3-13" target="QHwrTbUI5UQXZR6092e3-16">
          <mxGeometry relative="1" as="geometry" />
        </mxCell>
        <mxCell id="QHwrTbUI5UQXZR6092e3-13" value="init ParkedVehicle object" style="rounded=1;whiteSpace=wrap;html=1;absoluteArcSize=1;arcSize=0;strokeWidth=2;fontSize=14;" vertex="1" parent="1">
          <mxGeometry x="205.14" y="855" width="160" height="80" as="geometry" />
        </mxCell>
        <mxCell id="QHwrTbUI5UQXZR6092e3-18" style="edgeStyle=orthogonalEdgeStyle;rounded=0;orthogonalLoop=1;jettySize=auto;html=1;exitX=0;exitY=0.5;exitDx=0;exitDy=0;entryX=0;entryY=0.5;entryDx=0;entryDy=0;" edge="1" parent="1" source="QHwrTbUI5UQXZR6092e3-16" target="QHwrTbUI5UQXZR6092e3-7">
          <mxGeometry relative="1" as="geometry">
            <Array as="points">
              <mxPoint x="110.13999999999999" y="1035" />
              <mxPoint x="110.13999999999999" y="470" />
            </Array>
          </mxGeometry>
        </mxCell>
        <mxCell id="QHwrTbUI5UQXZR6092e3-16" value="push object to the list" style="rounded=1;whiteSpace=wrap;html=1;absoluteArcSize=1;arcSize=0;strokeWidth=2;fontSize=14;" vertex="1" parent="1">
          <mxGeometry x="205.14" y="995" width="160" height="80" as="geometry" />
        </mxCell>
        <mxCell id="QHwrTbUI5UQXZR6092e3-20" value="&lt;font style=&quot;font-size: 20px;&quot;&gt;MAIN DESIGN&lt;/font&gt;" style="text;html=1;align=left;verticalAlign=middle;resizable=0;points=[];autosize=1;strokeColor=none;fillColor=none;" vertex="1" parent="1">
          <mxGeometry x="35.14" y="30" width="160" height="40" as="geometry" />
        </mxCell>
        <mxCell id="QHwrTbUI5UQXZR6092e3-27" value="" style="edgeStyle=orthogonalEdgeStyle;rounded=0;orthogonalLoop=1;jettySize=auto;html=1;" edge="1" parent="1" source="QHwrTbUI5UQXZR6092e3-25" target="QHwrTbUI5UQXZR6092e3-26">
          <mxGeometry relative="1" as="geometry" />
        </mxCell>
        <mxCell id="QHwrTbUI5UQXZR6092e3-25" value="&lt;span style=&quot;font-size: 14px;&quot;&gt;outputBuilder()&lt;/span&gt;" style="verticalLabelPosition=middle;verticalAlign=middle;html=1;shape=process;whiteSpace=wrap;rounded=1;size=0.14;arcSize=6;align=center;labelPosition=center;" vertex="1" parent="1">
          <mxGeometry x="510" y="430" width="173.43" height="80" as="geometry" />
        </mxCell>
        <mxCell id="QHwrTbUI5UQXZR6092e3-26" value="END" style="strokeWidth=2;html=1;shape=mxgraph.flowchart.terminator;whiteSpace=wrap;fontSize=14;" vertex="1" parent="1">
          <mxGeometry x="544.22" y="550" width="105" height="50" as="geometry" />
        </mxCell>
        <mxCell id="QHwrTbUI5UQXZR6092e3-28" value="&lt;span style=&quot;font-size: 20px;&quot;&gt;OUTPUT BUILDER&lt;/span&gt;" style="text;html=1;align=left;verticalAlign=middle;resizable=0;points=[];autosize=1;strokeColor=none;fillColor=none;" vertex="1" parent="1">
          <mxGeometry x="890" y="30" width="200" height="40" as="geometry" />
        </mxCell>
        <mxCell id="QHwrTbUI5UQXZR6092e3-32" value="" style="edgeStyle=orthogonalEdgeStyle;rounded=0;orthogonalLoop=1;jettySize=auto;html=1;" edge="1" parent="1" source="QHwrTbUI5UQXZR6092e3-29" target="QHwrTbUI5UQXZR6092e3-31">
          <mxGeometry relative="1" as="geometry" />
        </mxCell>
        <mxCell id="QHwrTbUI5UQXZR6092e3-29" value="START" style="strokeWidth=2;html=1;shape=mxgraph.flowchart.terminator;whiteSpace=wrap;fontSize=14;" vertex="1" parent="1">
          <mxGeometry x="1180" y="20" width="105" height="50" as="geometry" />
        </mxCell>
        <mxCell id="QHwrTbUI5UQXZR6092e3-34" value="" style="edgeStyle=orthogonalEdgeStyle;rounded=0;orthogonalLoop=1;jettySize=auto;html=1;" edge="1" parent="1" source="QHwrTbUI5UQXZR6092e3-31" target="QHwrTbUI5UQXZR6092e3-33">
          <mxGeometry relative="1" as="geometry" />
        </mxCell>
        <mxCell id="QHwrTbUI5UQXZR6092e3-31" value="define totalPay = 0" style="verticalLabelPosition=middle;verticalAlign=middle;html=1;shape=hexagon;perimeter=hexagonPerimeter2;arcSize=6;size=0.17647058823529413;labelPosition=center;align=center;fontSize=14;" vertex="1" parent="1">
          <mxGeometry x="1147.5" y="120" width="170" height="80" as="geometry" />
        </mxCell>
        <mxCell id="QHwrTbUI5UQXZR6092e3-42" value="" style="edgeStyle=orthogonalEdgeStyle;rounded=0;orthogonalLoop=1;jettySize=auto;html=1;" edge="1" parent="1" source="QHwrTbUI5UQXZR6092e3-33" target="QHwrTbUI5UQXZR6092e3-41">
          <mxGeometry relative="1" as="geometry" />
        </mxCell>
        <mxCell id="QHwrTbUI5UQXZR6092e3-52" value="&lt;font style=&quot;font-size: 14px;&quot;&gt;TRUE&lt;/font&gt;" style="edgeLabel;html=1;align=center;verticalAlign=middle;resizable=0;points=[];" vertex="1" connectable="0" parent="QHwrTbUI5UQXZR6092e3-42">
          <mxGeometry x="-0.0586" relative="1" as="geometry">
            <mxPoint as="offset" />
          </mxGeometry>
        </mxCell>
        <mxCell id="QHwrTbUI5UQXZR6092e3-51" value="" style="edgeStyle=orthogonalEdgeStyle;rounded=0;orthogonalLoop=1;jettySize=auto;html=1;" edge="1" parent="1" source="QHwrTbUI5UQXZR6092e3-33" target="QHwrTbUI5UQXZR6092e3-50">
          <mxGeometry relative="1" as="geometry" />
        </mxCell>
        <mxCell id="QHwrTbUI5UQXZR6092e3-53" value="&lt;font style=&quot;font-size: 14px;&quot;&gt;FALSE&lt;/font&gt;" style="edgeLabel;html=1;align=center;verticalAlign=middle;resizable=0;points=[];" vertex="1" connectable="0" parent="QHwrTbUI5UQXZR6092e3-51">
          <mxGeometry x="-0.3527" y="2" relative="1" as="geometry">
            <mxPoint as="offset" />
          </mxGeometry>
        </mxCell>
        <mxCell id="QHwrTbUI5UQXZR6092e3-33" value="&lt;div&gt;i = 0&lt;/div&gt;&lt;div&gt;i &amp;lt; total vehicle?&lt;/div&gt;" style="rhombus;whiteSpace=wrap;html=1;fontSize=14;" vertex="1" parent="1">
          <mxGeometry x="1168.5" y="260" width="128" height="130" as="geometry" />
        </mxCell>
        <mxCell id="QHwrTbUI5UQXZR6092e3-44" value="" style="edgeStyle=orthogonalEdgeStyle;rounded=0;orthogonalLoop=1;jettySize=auto;html=1;" edge="1" parent="1" source="QHwrTbUI5UQXZR6092e3-41" target="QHwrTbUI5UQXZR6092e3-43">
          <mxGeometry relative="1" as="geometry" />
        </mxCell>
        <mxCell id="QHwrTbUI5UQXZR6092e3-41" value="check vehicle type&lt;div&gt;check status&lt;/div&gt;" style="rounded=1;whiteSpace=wrap;html=1;absoluteArcSize=1;arcSize=0;strokeWidth=2;fontSize=14;" vertex="1" parent="1">
          <mxGeometry x="1152.5" y="460" width="160" height="80" as="geometry" />
        </mxCell>
        <mxCell id="QHwrTbUI5UQXZR6092e3-46" value="" style="edgeStyle=orthogonalEdgeStyle;rounded=0;orthogonalLoop=1;jettySize=auto;html=1;" edge="1" parent="1" source="QHwrTbUI5UQXZR6092e3-43" target="QHwrTbUI5UQXZR6092e3-45">
          <mxGeometry relative="1" as="geometry" />
        </mxCell>
        <mxCell id="QHwrTbUI5UQXZR6092e3-43" value="calculate total pay based on vehicle type and status" style="rounded=1;whiteSpace=wrap;html=1;absoluteArcSize=1;arcSize=0;strokeWidth=2;fontSize=14;" vertex="1" parent="1">
          <mxGeometry x="1152.5" y="610" width="160" height="80" as="geometry" />
        </mxCell>
        <mxCell id="QHwrTbUI5UQXZR6092e3-48" value="" style="edgeStyle=orthogonalEdgeStyle;rounded=0;orthogonalLoop=1;jettySize=auto;html=1;" edge="1" parent="1" source="QHwrTbUI5UQXZR6092e3-45" target="QHwrTbUI5UQXZR6092e3-47">
          <mxGeometry relative="1" as="geometry" />
        </mxCell>
        <mxCell id="QHwrTbUI5UQXZR6092e3-45" value="if status regular calculate based on time diff" style="rounded=1;whiteSpace=wrap;html=1;absoluteArcSize=1;arcSize=0;strokeWidth=2;fontSize=14;" vertex="1" parent="1">
          <mxGeometry x="1152.5" y="760" width="160" height="80" as="geometry" />
        </mxCell>
        <mxCell id="QHwrTbUI5UQXZR6092e3-49" style="edgeStyle=orthogonalEdgeStyle;rounded=0;orthogonalLoop=1;jettySize=auto;html=1;exitX=0;exitY=0.5;exitDx=0;exitDy=0;entryX=0;entryY=0.5;entryDx=0;entryDy=0;" edge="1" parent="1" source="QHwrTbUI5UQXZR6092e3-47" target="QHwrTbUI5UQXZR6092e3-33">
          <mxGeometry relative="1" as="geometry">
            <Array as="points">
              <mxPoint x="1060" y="950" />
              <mxPoint x="1060" y="325" />
            </Array>
          </mxGeometry>
        </mxCell>
        <mxCell id="QHwrTbUI5UQXZR6092e3-47" value="totalPay += singlePay" style="rounded=1;whiteSpace=wrap;html=1;absoluteArcSize=1;arcSize=0;strokeWidth=2;fontSize=14;" vertex="1" parent="1">
          <mxGeometry x="1152.5" y="910" width="160" height="80" as="geometry" />
        </mxCell>
        <mxCell id="QHwrTbUI5UQXZR6092e3-50" value="END" style="strokeWidth=2;html=1;shape=mxgraph.flowchart.terminator;whiteSpace=wrap;fontSize=14;" vertex="1" parent="1">
          <mxGeometry x="1400" y="300" width="105" height="50" as="geometry" />
        </mxCell>
      </root>
    </mxGraphModel>
  </diagram>
</mxfile>
